<svg width="400" height="400" viewBox="0 0 400 400" fill="#3D50FA" xmlns="http://www.w3.org/2000/svg">
<path fill-rule="evenodd" clip-rule="evenodd" d="M199.644 147.271C190.717 147.749 179.297 149.045 175.922 149.964C175.264 150.143 173.918 150.499 172.932 150.756C163.682 153.16 160.244 157.274 157.557 169.146C157.209 170.69 156.765 172.566 156.572 173.315C156.378 174.065 156.109 175.554 155.973 176.625C155.51 180.271 155.611 180.226 147.732 180.39C140.803 180.535 139.883 180.708 138.146 182.186C137.507 182.732 137.449 183.928 137.449 196.664V210.547L138.661 211.758C141.046 214.14 144.785 214.738 149.074 213.425C153.074 212.2 152.973 212.073 151.853 216.924C151.138 220.027 150.556 234.71 150.682 246.509L150.805 257.987L154.393 258.463C162.18 259.495 168.43 260.722 169.124 261.356C169.333 261.546 169.745 261.702 170.04 261.702C170.336 261.702 171.601 262.341 172.851 263.124L175.124 264.546L218.49 264.492C265.342 264.434 261.727 264.589 265.321 262.48C268.132 260.831 273.446 259.602 282.271 258.558L286.158 258.097V244.771C286.158 233.716 285.87 223.866 285.258 214.004C285.147 212.204 285.507 212.119 288.542 213.22C294.289 215.304 300.109 213.475 300.712 209.395C300.844 208.503 300.808 202.002 300.632 194.947L300.312 182.118L298.926 181.329C297.706 180.634 296.622 180.515 289.875 180.334C281.001 180.097 281.573 180.379 280.769 175.833C277.737 158.675 273.893 153.005 263.753 150.729C262.59 150.468 261.28 150.124 260.842 149.962C259.031 149.297 249.268 148.041 242.303 147.576C234.732 147.071 207.073 146.874 199.644 147.271ZM241.384 149.563C257.758 150.811 267.97 153.251 271.585 156.783C274.05 159.189 276.173 165.562 277.743 175.262C277.968 176.654 278.36 179.02 278.613 180.519C279.185 183.9 279.688 187.915 280.173 192.978C280.378 195.12 280.738 198.624 280.971 200.766C283.631 225.115 283.905 238.862 281.777 241.187L280.642 242.428H218.714C170.761 242.428 156.594 242.321 155.938 241.954C153.557 240.62 152.932 236.406 153.79 227.455C154.006 225.197 154.373 220.108 154.605 216.146C154.837 212.184 155.194 207.453 155.4 205.633C155.604 203.813 156.052 199.345 156.396 195.704C156.739 192.063 157.2 187.858 157.419 186.359C158.842 176.642 159.161 174.777 160.211 170.006C161.916 162.257 163.399 158.551 165.567 156.618C166.851 155.476 170.884 153.458 171.887 153.458C172.216 153.458 172.585 153.302 172.705 153.111C172.826 152.921 173.509 152.667 174.223 152.549C174.938 152.43 176.42 152.148 177.517 151.924C189.334 149.501 223.822 148.226 241.384 149.563ZM150.86 261.971C150.518 262.307 150.873 273.477 151.415 279.32C153.334 300.082 154.489 306.337 156.876 308.912C157.807 309.918 278.931 309.977 279.96 308.973C281.24 307.723 281.658 306.544 282.987 300.444C283.942 296.062 284.923 287.231 285.367 279.028C286.444 259.11 287.025 261.347 281.019 262.277C272.514 263.594 271.54 263.77 269.881 264.289C264.72 265.902 260.242 270.733 255.564 279.732C254.764 281.272 253.606 283.265 252.991 284.16C252.375 285.056 251.871 285.901 251.871 286.039C251.871 286.575 248.163 290.964 247.174 291.597C246.288 292.166 244.734 292.296 236.941 292.462L227.751 292.656L226.028 293.899C221.403 297.237 215.212 297.139 210.441 293.652C209.091 292.667 208.982 292.654 199.876 292.462C189.708 292.246 189.967 292.309 187.541 289.491C185.676 287.325 184.774 285.99 183.163 283.019C176.046 269.894 172.365 265.758 166.353 264.137C161.963 262.952 151.372 261.473 150.86 261.971ZM179.102 268.724C178.963 268.945 179.903 270.741 181.191 272.715C182.479 274.688 183.965 277.15 184.493 278.185C186.26 281.656 185.861 281.559 198.402 281.559C207.289 281.559 210.026 281.431 212.601 280.893C216.549 280.067 220.403 280.071 224.561 280.904C227.061 281.406 230.134 281.546 238.771 281.552C251.628 281.56 250.429 281.962 253.274 276.692C254.314 274.765 255.782 272.338 256.536 271.3C257.29 270.262 257.811 269.167 257.692 268.867C257.421 268.175 179.54 268.034 179.102 268.724ZM155.788 275.65C158.616 276.637 162.97 277.276 166.86 277.276C172.333 277.276 176.314 278.41 178.798 280.676C181.232 282.898 185.931 291.006 185.467 292.186C184.889 293.655 170.425 293.308 165.755 291.714C165.207 291.526 163.772 291.085 162.566 290.734C154.626 288.416 153.012 286.417 152.367 278.092C152.044 273.938 151.662 274.211 155.788 275.65ZM284.507 276.333C284.627 277.634 284.131 282.09 283.552 284.905C283.183 286.694 278.634 289.595 274.198 290.868C273.211 291.152 271.955 291.526 271.407 291.701C266.084 293.395 251.867 293.601 251.55 291.99C251.31 290.763 254.951 284.195 257.15 281.893C260.506 278.376 262.025 277.839 270.211 277.266C277.412 276.761 279.642 276.409 281.773 275.438C284.066 274.392 284.334 274.48 284.507 276.333ZM156.187 281.101C156.187 284.293 157.402 285.456 162.635 287.272C169.353 289.605 180.11 290.918 180.677 289.475C181.086 288.434 177.603 283.666 175.466 282.343C173.547 281.153 173.354 281.12 164.36 280.402C161.509 280.174 158.504 279.88 157.682 279.749L156.187 279.51V281.101ZM277.188 280.032C275.872 280.206 272.248 280.525 269.135 280.74C265.663 280.979 263.033 281.352 262.336 281.704C259.59 283.091 255.535 288.798 256.574 289.812C258.079 291.282 274.596 288.025 278.366 285.515C280.612 284.021 281.95 279.478 280.091 279.663C279.81 279.691 278.504 279.858 277.188 280.032ZM213.996 284.299C211.737 284.942 209.992 285.038 200.365 285.05C188.126 285.066 187.94 285.107 190.23 287.344L191.681 288.763L200.756 288.957C209.348 289.141 209.88 289.197 210.75 289.989C214.982 293.844 220.89 293.924 225.891 290.193C227.286 289.152 227.287 289.152 236.222 288.957L245.157 288.763L246.537 287.291C248.61 285.08 248.535 285.064 236.162 285.064C225.924 285.064 224.672 284.992 222.568 284.285C219.727 283.331 217.386 283.335 213.996 284.299ZM168.282 299.87C170.339 300.815 171.681 302.707 171.186 303.965C170.802 304.942 164.035 304.595 162.103 303.5C160.534 302.61 159.117 300.302 159.517 299.285C159.922 298.254 165.589 298.633 168.282 299.87ZM277.363 299.247C278.424 300.496 275.804 303.406 272.94 304.159C268.287 305.383 265.169 304.276 266.291 301.799C267.357 299.447 275.866 297.486 277.363 299.247ZM280.43 302.618C280.048 304.49 278.712 306.017 277.071 306.463C275.356 306.929 261.44 307.017 261.44 306.563C261.44 306.279 266.249 305.591 272.802 304.937C276.283 304.589 277.344 304.163 278.548 302.63C279.821 301.007 280.761 301.001 280.43 302.618ZM158.297 302.632C160.264 304.477 161.463 304.917 164.559 304.934C166.204 304.942 168.716 305.199 170.141 305.505C171.566 305.812 173.351 306.068 174.108 306.076C175.094 306.086 175.361 306.209 175.053 306.51C174.355 307.191 160.279 306.823 158.78 306.085C157.677 305.541 156.252 303.441 156.206 302.293C156.176 301.534 157.324 301.721 158.297 302.632ZM164.222 311.663C162.882 313.24 163.432 316.709 165.091 317.144C166.47 317.506 188.623 317.404 189.222 317.034C189.92 316.601 190.26 313.583 189.753 312.306L189.363 311.318L177.02 311.222C166.938 311.144 164.594 311.225 164.222 311.663ZM249.211 311.446C246.45 311.672 245.474 315.68 247.885 316.889C248.956 317.425 272.264 317.454 272.809 316.921C273.298 316.443 273.112 311.848 272.591 311.534C272.116 311.247 252.546 311.173 249.211 311.446Z" fill="#131145"/>
</svg>
